<svg width="44" height="48" viewBox="0 0 44 48" fill="none" xmlns="http://www.w3.org/2000/svg">
<g filter="url(#filter0_d)">
<path d="M5.7969 7.77711C5.49738 8.13654 5.33334 8.5896 5.33334 9.05748V35.3334C5.33334 36.9902 6.67649 38.3334 8.33334 38.3334H35.6667C37.3235 38.3334 38.6667 36.9902 38.6667 35.3334V9.05748C38.6667 8.5896 38.5026 8.13654 38.2031 7.77711L33.7108 2.38634C33.3308 1.93036 32.7679 1.66671 32.1744 1.66671H11.8256C11.2321 1.66671 10.6692 1.93036 10.2892 2.38634L5.7969 7.77711Z" stroke="#F2F2F2" stroke-width="2"/>
<path d="M5.33334 9.16663H38.6667" stroke="#F2F2F2" stroke-width="2"/>
<path d="M28.6667 16.6666C28.6667 20.3485 25.6819 23.3333 22 23.3333C18.3181 23.3333 15.3333 20.3485 15.3333 16.6666" stroke="#F2F2F2" stroke-width="2" stroke-linecap="round"/>
</g>
<defs>
<filter id="filter0_d" x="-2" y="0" width="48" height="48" filterUnits="userSpaceOnUse" color-interpolation-filters="sRGB">
<feFlood flood-opacity="0" result="BackgroundImageFix"/>
<feColorMatrix in="SourceAlpha" type="matrix" values="0 0 0 0 0 0 0 0 0 0 0 0 0 0 0 0 0 0 127 0" result="hardAlpha"/>
<feOffset dy="4"/>
<feGaussianBlur stdDeviation="2"/>
<feComposite in2="hardAlpha" operator="out"/>
<feColorMatrix type="matrix" values="0 0 0 0 0 0 0 0 0 0 0 0 0 0 0 0 0 0 0.25 0"/>
<feBlend mode="normal" in2="BackgroundImageFix" result="effect1_dropShadow"/>
<feBlend mode="normal" in="SourceGraphic" in2="effect1_dropShadow" result="shape"/>
</filter>
</defs>
</svg>
