<svg width="46" height="43" viewBox="0 0 46 43" fill="none" xmlns="http://www.w3.org/2000/svg">
<g filter="url(#filter0_d)">
<path d="M6.625 28.3335H25.375" stroke="#6E6CD9" stroke-width="2" stroke-linecap="round"/>
<path d="M19.75 11.6665H38.5" stroke="#6E6CD9" stroke-width="2" stroke-linecap="round"/>
<path d="M39.375 28.3332C39.375 31.3553 36.5788 33.9998 32.875 33.9998C29.1712 33.9998 26.375 31.3553 26.375 28.3332C26.375 25.311 29.1712 22.6665 32.875 22.6665C36.5788 22.6665 39.375 25.311 39.375 28.3332Z" stroke="#6E6CD9" stroke-width="2"/>
<path d="M18.75 11.6667C18.75 14.6888 15.9538 17.3333 12.25 17.3333C8.54617 17.3333 5.75 14.6888 5.75 11.6667C5.75 8.64453 8.54617 6 12.25 6C15.9538 6 18.75 8.64453 18.75 11.6667Z" stroke="#6E6CD9" stroke-width="2"/>
</g>
<defs>
<filter id="filter0_d" x="-3" y="0" width="53" height="48" filterUnits="userSpaceOnUse" color-interpolation-filters="sRGB">
<feFlood flood-opacity="0" result="BackgroundImageFix"/>
<feColorMatrix in="SourceAlpha" type="matrix" values="0 0 0 0 0 0 0 0 0 0 0 0 0 0 0 0 0 0 127 0" result="hardAlpha"/>
<feOffset dy="4"/>
<feGaussianBlur stdDeviation="2"/>
<feComposite in2="hardAlpha" operator="out"/>
<feColorMatrix type="matrix" values="0 0 0 0 0 0 0 0 0 0 0 0 0 0 0 0 0 0 0.25 0"/>
<feBlend mode="normal" in2="BackgroundImageFix" result="effect1_dropShadow"/>
<feBlend mode="normal" in="SourceGraphic" in2="effect1_dropShadow" result="shape"/>
</filter>
</defs>
</svg>
